<svg id="Layer_1" data-name="Layer 1" xmlns="http://www.w3.org/2000/svg" width="19.019" height="16" viewBox="0 0 19.019 16">
  <g id="compare_arrows" data-name="compare arrows">
    <path id="Path_719" data-name="Path 719" d="M4.007,8.065A.8.8,0,0,0,4.573,6.7L2.736,4.861h9.815a.8.8,0,0,0,0-1.6H2.736L4.573,1.422A.8.8,0,0,0,3.441.29l-3.2,3.2a.8.8,0,0,0,0,1.132l3.2,3.2A.8.8,0,0,0,4.007,8.065ZM18.788,11.5l-3.2-3.2a.8.8,0,0,0-1.132,1.132l1.837,1.837H6.473a.8.8,0,1,0,0,1.6h9.815l-1.837,1.837a.8.8,0,1,0,1.132,1.132l3.2-3.2a.8.8,0,0,0,0-1.132Z" transform="translate(-0.003 -0.075)" fill="#223549"/>
  </g>
</svg>
