<svg xmlns="http://www.w3.org/2000/svg" width="21.224" height="25" viewBox="0 0 21.224 25">
  <path id="box" d="M24.827,8.941a.239.239,0,0,1,0-.1.214.214,0,0,1,0-.088V8.639l-.075-.189h0a.6.6,0,0,0-.113-.138l-.113-.1h-.063L19.511,5.082h0L14.835,2.191A1.068,1.068,0,0,0,14.471,2h-.1a1.031,1.031,0,0,0-.339,0h-.126a1.42,1.42,0,0,0-.415.163L4.1,8.01,3.989,8.1l-.113.1-.126.088-.063.075h0l-.075.189v.189a.867.867,0,0,0,0,.251V19.963A1.257,1.257,0,0,0,4.2,21.031l9.426,5.832h0l.189.075h.1a1.081,1.081,0,0,0,.654,0h.1l.189-.075h0l9.351-5.744a1.257,1.257,0,0,0,.591-1.068V9.079A.683.683,0,0,0,24.827,8.941ZM14.157,4.73l2.237,1.383L9.368,10.461,7.118,9.079ZM12.9,23.583,5.987,19.36V11.328L12.9,15.6ZM14.157,13.39l-2.4-1.445,7.026-4.361,2.413,1.5Zm8.169,5.932-6.913,4.3V15.6l6.913-4.273Z" transform="translate(-3.603 -1.989)" fill="#f92162"/>
</svg>
