<svg xmlns="http://www.w3.org/2000/svg" width="25.029" height="25" viewBox="0 0 25.029 25">
  <path id="laptop-connection" d="M25.778,22.024H18.044a3.754,3.754,0,0,0-2.278-2.278v-3.98h8.76a1.251,1.251,0,0,0,0-2.5H23.275V5.754A3.754,3.754,0,0,0,19.521,2H9.509A3.754,3.754,0,0,0,5.754,5.754v7.509H4.5a1.251,1.251,0,0,0,0,2.5h8.76v3.98a3.754,3.754,0,0,0-2.278,2.278H3.251a1.251,1.251,0,1,0,0,2.5h7.734a3.754,3.754,0,0,0,7.058,0h7.734a1.251,1.251,0,0,0,0-2.5ZM8.257,13.263V5.754A1.251,1.251,0,0,1,9.509,4.5H19.521a1.251,1.251,0,0,1,1.251,1.251v7.509Zm6.257,11.263a1.251,1.251,0,1,1,1.251-1.251A1.251,1.251,0,0,1,14.515,24.526Z" transform="translate(-2 -2)" fill="#116be5"/>
</svg>
