<svg xmlns="http://www.w3.org/2000/svg" width="20.006" height="25" viewBox="0 0 20.006 25">
  <path id="shield-check" d="M23.544,4.063a1.25,1.25,0,0,0-1.05-.25,10,10,0,0,1-7.777-1.588,1.25,1.25,0,0,0-1.425,0A10,10,0,0,1,5.513,3.813,1.249,1.249,0,0,0,4,5.038v9.315a11.254,11.254,0,0,0,4.714,9.165l4.564,3.251a1.25,1.25,0,0,0,1.45,0l4.564-3.251a11.254,11.254,0,0,0,4.714-9.165V5.038A1.25,1.25,0,0,0,23.544,4.063ZM21.505,14.353a8.753,8.753,0,0,1-3.664,7.127L14,24.219l-3.839-2.738A8.753,8.753,0,0,1,6.5,14.353V6.476A12.5,12.5,0,0,0,14,4.738a12.5,12.5,0,0,0,7.5,1.738ZM15.929,11.49l-3.364,3.376-1.113-1.125a1.256,1.256,0,0,0-1.776,1.776l2,2a1.25,1.25,0,0,0,1.776,0l4.3-4.264a1.256,1.256,0,1,0-1.776-1.776Z" transform="translate(-4 -2.002)" fill="#f8a714"/>
</svg>
