<svg xmlns="http://www.w3.org/2000/svg" width="19.007" height="19" viewBox="0 0 19.007 19">
  <path id="shopping-cart" d="M20.029,15.284H6.744a.949.949,0,1,1,0-1.9h9.906a2.847,2.847,0,0,0,2.761-2.154l1.566-6.158A.942.942,0,0,0,20.029,3.9H6.517A2.847,2.847,0,0,0,3.841,2H2.949a.949.949,0,1,0,0,1.9h.892a.949.949,0,0,1,.949.721l.057.455h0l1.642,6.414a2.85,2.85,0,1,0,.256,5.693h.171a2.847,2.847,0,1,0,5.352,0h2.239a2.847,2.847,0,1,0,5.352,0h.171a.949.949,0,0,0,0-1.9ZM18.814,5.8l-1.243,4.972a.949.949,0,0,1-.949.721H8.433L7.01,5.8ZM9.591,19.08a.949.949,0,1,1,.949-.949A.949.949,0,0,1,9.591,19.08Zm7.591,0a.949.949,0,1,1,.949-.949A.949.949,0,0,1,17.182,19.08Z" transform="translate(-2 -2)" fill="#223549"/>
</svg>
