<svg xmlns="http://www.w3.org/2000/svg" width="33" height="33" viewBox="0 0 33 33">
  <path id="Path_85" data-name="Path 85" d="M18.509,2a16.5,16.5,0,1,0,6.314,1.256A16.5,16.5,0,0,0,18.509,2Zm5.247,25a1.163,1.163,0,0,1-1.653.581L17.623,24.1l-2.874,2.653a.495.495,0,0,1-.47.064l.551-4.932.017.015.012-.1s8.06-7.339,8.389-7.651.223-.379.223-.379c.02-.38-.6,0-.6,0L12.193,20.643,7.746,19.129s-.683-.244-.747-.784.769-.825.769-.825L25.45,10.494s1.454-.647,1.454.426Z" transform="translate(-2.009 -2)" fill="#116be5"/>
</svg>
