<?xml version="1.0" encoding="UTF-8"?>
<svg xmlns="http://www.w3.org/2000/svg" xmlns:xlink="http://www.w3.org/1999/xlink" width="94pt" height="53pt" viewBox="0 0 94 53" version="1.1">
<g id="surface1">
<path style=" stroke:none;fill-rule:nonzero;fill:rgb(6.666667%,41.960784%,89.803922%);fill-opacity:1;" d="M 29.289062 13.976562 L 29.289062 27.769531 C 29.289062 29.371094 28.902344 30.761719 28.132812 31.941406 C 27.359375 33.132812 26.292969 34.035156 24.9375 34.652344 C 23.570312 35.277344 22.003906 35.589844 20.242188 35.589844 C 18.585938 35.589844 17.140625 35.324219 15.902344 34.785156 C 14.652344 34.25 13.6875 33.425781 13.003906 32.3125 C 12.308594 31.203125 11.960938 29.8125 11.960938 28.144531 L 11.960938 13.960938 L 17.148438 13.976562 L 17.148438 26.652344 C 17.148438 27.476562 17.242188 28.1875 17.429688 28.785156 C 17.628906 29.410156 17.964844 29.894531 18.441406 30.242188 C 18.90625 30.609375 19.550781 30.792969 20.375 30.792969 C 21.910156 30.792969 22.917969 30.34375 23.40625 29.4375 C 23.882812 28.527344 24.117188 27.21875 24.117188 25.519531 L 24.117188 13.960938 Z M 29.289062 13.976562 "/>
<path style=" stroke:none;fill-rule:nonzero;fill:rgb(6.666667%,41.960784%,89.803922%);fill-opacity:1;" d="M 37.804688 23.554688 C 36.597656 23.605469 35.992188 24.449219 35.992188 26.085938 L 35.992188 35.101562 L 31.238281 35.101562 L 31.238281 26.085938 C 31.238281 21.75 33.425781 19.46875 37.804688 19.25 L 38.074219 19.25 C 42.453125 19.46875 44.640625 21.75 44.640625 26.085938 L 44.640625 35.101562 L 39.886719 35.101562 L 39.886719 26.085938 C 39.886719 24.449219 39.28125 23.605469 38.074219 23.554688 Z M 37.804688 23.554688 "/>
<path style=" stroke:none;fill-rule:nonzero;fill:rgb(6.666667%,41.960784%,89.803922%);fill-opacity:1;" d="M 49.992188 16.808594 C 49.773438 17.175781 49.476562 17.472656 49.101562 17.703125 C 48.722656 17.929688 48.308594 18.042969 47.851562 18.042969 C 47.394531 18.042969 46.984375 17.933594 46.617188 17.714844 C 46.242188 17.488281 45.945312 17.183594 45.726562 16.808594 C 45.5 16.410156 45.386719 15.988281 45.386719 15.542969 C 45.386719 15.085938 45.492188 14.667969 45.710938 14.289062 C 45.949219 13.902344 46.25 13.601562 46.617188 13.382812 C 46.984375 13.164062 47.394531 13.054688 47.851562 13.054688 C 48.308594 13.054688 48.722656 13.164062 49.101562 13.382812 C 49.46875 13.601562 49.765625 13.902344 49.992188 14.289062 C 50.210938 14.667969 50.320312 15.085938 50.320312 15.542969 C 50.320312 16.019531 50.210938 16.441406 49.992188 16.808594 Z M 50.304688 19.859375 L 50.304688 35.128906 L 45.5625 35.128906 L 45.5625 19.875 Z M 50.304688 19.859375 "/>
<path style=" stroke:none;fill-rule:nonzero;fill:rgb(97.647059%,12.941176%,38.431373%);fill-opacity:1;" d="M 64.292969 24.636719 C 64.070312 24.867188 63.726562 24.917969 63.449219 24.769531 C 62.878906 24.464844 62.03125 24.125 61.675781 24 C 61.183594 23.832031 60.664062 23.75 60.117188 23.75 C 59.097656 23.75 58.234375 24.078125 57.53125 24.738281 C 56.816406 25.398438 56.460938 26.214844 56.460938 27.191406 C 56.460938 27.953125 56.546875 28.675781 56.921875 29.238281 C 58.566406 31.722656 62 30.789062 63.367188 30.046875 C 63.65625 29.890625 64.011719 29.957031 64.230469 30.203125 L 65.933594 32.136719 C 66.21875 32.457031 66.152344 32.957031 65.796875 33.195312 C 65.203125 33.59375 64.390625 34.0625 63.96875 34.257812 C 63.328125 34.542969 62.671875 34.757812 61.996094 34.898438 C 61.316406 35.035156 60.691406 35.105469 60.117188 35.105469 C 58.503906 35.105469 57.082031 34.765625 55.851562 34.089844 C 54.617188 33.402344 53.671875 32.5 53.015625 31.386719 C 52.355469 30.253906 52.027344 29.039062 52.027344 27.75 C 52.027344 26.570312 52.226562 25.5 52.625 24.542969 C 53.03125 23.570312 53.59375 22.734375 54.304688 22.035156 C 55.011719 21.359375 55.867188 20.824219 56.878906 20.433594 C 57.878906 20.050781 58.957031 19.867188 60.117188 19.863281 C 62.59375 19.847656 64.761719 21.035156 65.859375 21.898438 C 66.1875 22.160156 66.21875 22.648438 65.925781 22.949219 Z M 64.292969 24.636719 "/>
<path style=" stroke:none;fill-rule:nonzero;fill:rgb(97.647059%,12.941176%,38.431373%);fill-opacity:1;" d="M 64.121094 27.355469 C 64.121094 25.4375 69.660156 19.90625 74.308594 19.90625 C 75.367188 19.90625 76.394531 20.089844 77.394531 20.460938 C 78.371094 20.816406 79.246094 21.34375 80.023438 22.050781 C 80.792969 22.757812 81.390625 23.574219 81.816406 24.503906 C 82.253906 25.441406 82.46875 26.453125 82.46875 27.542969 C 82.46875 28.648438 82.257812 29.660156 81.832031 30.578125 C 81.40625 31.507812 80.800781 32.332031 80.023438 33.046875 C 79.234375 33.75 78.359375 34.285156 77.394531 34.648438 C 76.421875 35.027344 75.394531 35.21875 74.308594 35.21875 C 69.230469 35.21875 64.121094 29.15625 64.121094 27.355469 Z M 74.308594 31.179688 C 75.320312 31.179688 76.191406 30.820312 76.921875 30.105469 C 77.664062 29.390625 78.035156 28.535156 78.035156 27.542969 C 78.035156 26.890625 77.863281 26.292969 77.519531 25.742188 C 77.179688 25.195312 76.71875 24.757812 76.144531 24.433594 C 75.578125 24.109375 74.96875 23.945312 74.308594 23.945312 C 70.988281 23.945312 68.917969 26.890625 68.917969 27.542969 C 68.917969 28.535156 72.148438 31.179688 74.308594 31.179688 Z M 74.308594 31.179688 "/>
</g>
</svg>
