<svg xmlns="http://www.w3.org/2000/svg" width="40" height="13.026" viewBox="0 0 40 13.026">
  <path id="Path_722" data-name="Path 722" d="M37.037,20.958l-.375-1.888h-4.19l-.667,1.875-3.358.007q2.4-5.811,4.807-11.613a1.469,1.469,0,0,1,1.473-.986q.82.008,2.677,0l2.6,12.6-2.963.005Zm-3.622-4.475h2.7l-1.008-4.734-1.692,4.734ZM11.767,8.35l3.377,0L9.923,20.96l-3.418,0q-1.289-4.995-2.547-10A1.724,1.724,0,0,0,2.827,9.609Q1.979,9.314,0,8.7V8.355H5.395A1.517,1.517,0,0,1,7.048,9.743q.265,1.4,1.333,7.141Zm8.017,0-2.67,12.6-3.213,0,2.667-12.6ZM26.3,8.12a8.858,8.858,0,0,1,2.87.579l-.563,2.614a7.235,7.235,0,0,0-2.538-.588c-1.267.022-2.05.557-2.05,1.071,0,.836,1.36,1.257,2.76,2.17,1.6,1.041,1.808,1.976,1.788,2.991-.022,2.108-1.788,4.188-5.515,4.188a9.173,9.173,0,0,1-3.7-.665l.587-2.728a6.952,6.952,0,0,0,3.217.786c1.105,0,2.053-.45,2.062-1.234.007-.557-.333-.834-1.573-1.523s-2.98-1.645-2.957-3.562c.028-2.454,2.337-4.1,5.615-4.1Z" transform="translate(0 -8.12)" fill="#071c75"/>
</svg>
