<svg xmlns="http://www.w3.org/2000/svg" width="35" height="35" viewBox="0 0 35 35">
  <g id="ge" transform="translate(0.002 0.002)">
    <circle id="Ellipse_582" data-name="Ellipse 582" cx="17.498" cy="17.498" r="17.498" fill="#fff"/>
    <g id="Group_3778" data-name="Group 3778" transform="translate(-0.002 -0.002)">
      <path id="Path_2838" data-name="Path 2838" d="M34.85,15.216H19.78V.147a17.658,17.658,0,0,0-4.564,0v15.07H.147a17.658,17.658,0,0,0,0,4.564h15.07V34.85a17.658,17.658,0,0,0,4.564,0V19.78H34.85a17.658,17.658,0,0,0,0-4.564Z" transform="translate(0.002 0.002)" fill="#ff3b30"/>
      <path id="Path_2839" data-name="Path 2839" d="M92.173,90.608V89.043H90.608v1.565H89.043v1.565h1.565v1.565h1.565V92.173h1.565V90.608Z" transform="translate(-82.489 -82.489)" fill="#ff3b30"/>
      <path id="Path_2840" data-name="Path 2840" d="M325.913,90.608V89.043h-1.565v1.565h-1.565v1.565h1.565v1.565h1.565V92.173h1.565V90.608Z" transform="translate(-299.033 -82.489)" fill="#ff3b30"/>
      <path id="Path_2841" data-name="Path 2841" d="M92.173,324.348v-1.565H90.608v1.565H89.043v1.565h1.565v1.565h1.565v-1.565h1.565v-1.565Z" transform="translate(-82.489 -299.033)" fill="#ff3b30"/>
      <path id="Path_2842" data-name="Path 2842" d="M325.913,324.348v-1.565h-1.565v1.565h-1.565v1.565h1.565v1.565h1.565v-1.565h1.565v-1.565Z" transform="translate(-299.033 -299.033)" fill="#ff3b30"/>
    </g>
  </g>
</svg>
