<svg xmlns="http://www.w3.org/2000/svg" width="13" height="13" viewBox="0 0 13 13">
  <path id="apps" d="M7.2,9.15H2.65A.65.65,0,0,0,2,9.8v4.55a.65.65,0,0,0,.65.65H7.2a.65.65,0,0,0,.65-.65V9.8A.65.65,0,0,0,7.2,9.15ZM6.55,13.7H3.3V10.45H6.55ZM14.35,2H9.8a.65.65,0,0,0-.65.65V7.2a.65.65,0,0,0,.65.65h4.55A.65.65,0,0,0,15,7.2V2.65A.65.65,0,0,0,14.35,2ZM13.7,6.55H10.45V3.3H13.7Zm.65,2.6H9.8a.65.65,0,0,0-.65.65v4.55A.65.65,0,0,0,9.8,15h4.55a.65.65,0,0,0,.65-.65V9.8A.65.65,0,0,0,14.35,9.15ZM13.7,13.7H10.45V10.45H13.7ZM7.2,2H2.65A.65.65,0,0,0,2,2.65V7.2a.65.65,0,0,0,.65.65H7.2a.65.65,0,0,0,.65-.65V2.65A.65.65,0,0,0,7.2,2ZM6.55,6.55H3.3V3.3H6.55Z" transform="translate(-2 -2)" fill="#223549"/>
</svg>
